<svg width="29" height="23" viewBox="0 0 29 23" fill="none" xmlns="http://www.w3.org/2000/svg">
<path fill-rule="evenodd" clip-rule="evenodd" d="M0.625018 6.47722C0.625 6.55317 0.625 6.63017 0.625 6.70826V16.2916C0.625 19.12 0.625 20.5342 1.50368 21.4129C2.38236 22.2916 3.79657 22.2916 6.625 22.2916H22.375C25.2034 22.2916 26.6176 22.2916 27.4963 21.4129C28.375 20.5342 28.375 19.12 28.375 16.2916V6.70825C28.375 6.63017 28.375 6.55317 28.375 6.47722L15.4713 13.6459C14.8672 13.9815 14.1328 13.9815 13.5287 13.6459L0.625018 6.47722ZM0.656819 4.33355C0.811047 4.33833 0.966465 4.379 1.11064 4.45909L14.5 11.8976L27.8894 4.45909C28.0335 4.379 28.189 4.33833 28.3432 4.33355C28.2788 3.00269 28.0843 2.17491 27.4963 1.58693C26.6176 0.708252 25.2034 0.708252 22.375 0.708252H6.625C3.79657 0.708252 2.38236 0.708252 1.50368 1.58693C0.915702 2.17491 0.721176 3.00269 0.656819 4.33355Z" fill="white"/>
</svg>
